<svg width="22" height="17" viewBox="0 0 22 17" fill="none" xmlns="http://www.w3.org/2000/svg">
<path fill-rule="evenodd" clip-rule="evenodd" d="M2.48667 15.5844L3.90088 16.9986L19.4572 1.44229L18.043 0.0280762L15.6285 2.44257C14.2073 1.83583 12.6431 1.49998 11 1.49998C6 1.49998 1.73 4.60998 0 8.99998C0.811754 11.0599 2.18274 12.8379 3.92596 14.1451L2.48667 15.5844ZM6.63386 11.4372L8.145 9.92609C8.05085 9.63456 8 9.32334 8 8.99998C8 7.33998 9.34 5.99998 11 5.99998C11.3234 5.99998 11.6346 6.05083 11.9261 6.14498L13.4372 4.63385C12.716 4.23016 11.8847 3.99998 11 3.99998C8.24 3.99998 6 6.23998 6 8.99998C6 9.88472 6.23017 10.716 6.63386 11.4372Z" fill="white" fill-opacity="0.35"/>
<path d="M11 16.5C9.8532 16.5 8.7448 16.3364 7.69664 16.0312L9.85889 13.869C10.2254 13.9547 10.6075 14 11 14C13.76 14 16 11.76 16 8.99998C16 8.60744 15.9547 8.22542 15.869 7.85887L19.0531 4.67478C20.3323 5.8686 21.3471 7.34313 22 8.99998C20.27 13.39 16 16.5 11 16.5Z" fill="white" fill-opacity="0.35"/>
</svg>
