<svg width="21" height="21" viewBox="0 0 21 21" fill="none" xmlns="http://www.w3.org/2000/svg">
<path d="M6.02234 1.54492C6.02234 0.992188 6.4696 0.544922 7.02234 0.544922H19.0223C19.5751 0.544922 20.0223 0.992188 20.0223 1.54492V13.5449C20.0223 13.7559 19.9569 13.9531 19.8456 14.1152C19.6649 14.375 19.3632 14.5449 19.0223 14.5449H16.0223V5.54492C16.0223 4.99219 15.5751 4.54492 15.0223 4.54492H6.02234V1.54492Z" fill="white" fill-opacity="0.35"/>
<path d="M1.02234 6.54492C0.469604 6.54492 0.0223389 6.99219 0.0223389 7.54492V19.5449C0.0223389 19.8066 0.122925 20.0449 0.286987 20.2227C0.469604 20.4199 0.731323 20.5449 1.02234 20.5449H13.0223C13.5751 20.5449 14.0223 20.0977 14.0223 19.5449V7.54492C14.0223 6.99219 13.5751 6.54492 13.0223 6.54492H1.02234Z" fill="white" fill-opacity="0.35"/>
</svg>
