<svg width="40" height="40" viewBox="0 0 40 40" fill="none" xmlns="http://www.w3.org/2000/svg">
<g clip-path="url(#clip0_848_1371)">
<rect width="40" height="40" fill="#70788B"/>
<rect opacity="0.24" width="40" height="40" fill="url(#paint0_linear_848_1371)"/>
<path d="M16.4037 25V14.8182H20.3014C21.0372 14.8182 21.6487 14.9342 22.1359 15.1662C22.6265 15.3949 22.9927 15.7081 23.2346 16.1058C23.4799 16.5036 23.6025 16.9543 23.6025 17.4581C23.6025 17.8724 23.523 18.227 23.3639 18.522C23.2048 18.8137 22.991 19.0507 22.7226 19.233C22.4541 19.4152 22.1541 19.5462 21.8227 19.6257V19.7251C22.184 19.745 22.5303 19.8561 22.8618 20.0582C23.1965 20.2571 23.47 20.5388 23.6821 20.9034C23.8942 21.268 24.0003 21.7088 24.0003 22.2259C24.0003 22.7528 23.8727 23.2268 23.6175 23.6477C23.3622 24.0653 22.9778 24.3951 22.464 24.6371C21.9503 24.879 21.304 25 20.5251 25H16.4037ZM18.2481 23.4588H20.2318C20.9013 23.4588 21.3836 23.3312 21.6785 23.076C21.9768 22.8175 22.126 22.486 22.126 22.0817C22.126 21.7801 22.0514 21.5083 21.9023 21.2663C21.7531 21.0211 21.541 20.8288 21.2659 20.6896C20.9908 20.5471 20.6627 20.4759 20.2815 20.4759H18.2481V23.4588ZM18.2481 19.1484H20.0727C20.3909 19.1484 20.6776 19.0904 20.9328 18.9744C21.188 18.8551 21.3885 18.6877 21.5344 18.4723C21.6835 18.2536 21.7581 17.995 21.7581 17.6967C21.7581 17.3023 21.6189 16.9775 21.3405 16.7223C21.0654 16.4671 20.656 16.3395 20.1125 16.3395H18.2481V19.1484Z" fill="white"/>
</g>
<defs>
<linearGradient id="paint0_linear_848_1371" x1="20" y1="0" x2="20" y2="40" gradientUnits="userSpaceOnUse">
<stop stop-color="white"/>
<stop offset="1" stop-color="white" stop-opacity="0"/>
</linearGradient>
<clipPath id="clip0_848_1371">
<rect width="40" height="40" rx="20" fill="white"/>
</clipPath>
</defs>
</svg>
