<svg width="24" height="24" viewBox="0 0 24 24" fill="none" xmlns="http://www.w3.org/2000/svg">
<path d="M23.6401 14.9031C22.0374 21.3317 15.5259 25.2437 9.09649 23.641C2.67011 22.0382 -1.24226 15.5267 0.360865 9.09847C1.96286 2.6691 8.47399 -1.24365 14.9015 0.359098C21.3305 1.96185 25.2425 8.4741 23.6397 14.9031H23.6401Z" fill="#F7931A"/>
<path d="M12.5835 6.68408L12.2241 8.12256C12.4637 8.17725 12.7054 8.23202 12.9399 8.29053L13.2954 6.86182L14.1889 7.08447L13.8237 8.55225C14.9512 8.94071 15.7755 9.52287 15.6137 10.606C15.4964 11.3988 15.0566 11.7824 14.4731 11.9175C15.2745 12.3349 15.6819 12.9753 15.2934 14.0845C14.8118 15.4612 13.6667 15.5777 12.144 15.2896L11.7739 16.771L10.8813 16.5483L11.2456 15.0864C11.0141 15.0289 10.7771 14.968 10.5337 14.9019L10.1674 16.3706L9.27585 16.1479L9.64499 14.6636C9.4367 14.6102 9.22444 14.5527 9.00827 14.4985L7.84616 14.2095L8.28952 13.187C8.29635 13.1888 8.93228 13.3575 8.93893 13.3491C9.19163 13.4115 9.30386 13.2461 9.34811 13.1362L9.9321 10.7944L10.0268 10.8179C9.99137 10.8037 9.95893 10.7949 9.93405 10.7886L10.3501 9.1167C10.3612 8.92693 10.2958 8.68747 9.93405 8.59717C9.94795 8.58782 9.29415 8.43799 9.28561 8.43604L9.52292 7.48193L10.7553 7.78955L10.7544 7.79443C10.9394 7.84043 11.1305 7.884 11.3247 7.92822L11.6899 6.46143L12.5835 6.68408ZM10.8237 13.8267C11.4294 13.9773 13.2974 14.5764 13.5737 13.4673C13.8609 12.3109 11.9193 12.0119 11.3139 11.8608L10.8237 13.8267ZM11.5385 10.9604C12.0432 11.0862 13.5973 11.5982 13.8491 10.5894C14.1115 9.53701 12.4873 9.30291 11.9829 9.17725L11.5385 10.9604Z" fill="white"/>
</svg>
