<svg width="56" height="56" viewBox="0 0 56 56" fill="none" xmlns="http://www.w3.org/2000/svg">
<rect width="56" height="56" rx="17" fill="#FF974D" fill-opacity="0.37"/>
<path d="M13 38V28C13 24.0218 14.5804 20.2064 17.3934 17.3934C20.2064 14.5804 24.0218 13 28 13C31.9782 13 35.7936 14.5804 38.6066 17.3934C41.4196 20.2064 43 24.0218 43 28V38M43 39.6667C43 40.5507 42.6488 41.3986 42.0237 42.0237C41.3986 42.6488 40.5507 43 39.6667 43H38C37.1159 43 36.2681 42.6488 35.643 42.0237C35.0179 41.3986 34.6667 40.5507 34.6667 39.6667V34.6667C34.6667 33.7826 35.0179 32.9348 35.643 32.3096C36.2681 31.6845 37.1159 31.3333 38 31.3333H43V39.6667ZM13 39.6667C13 40.5507 13.3512 41.3986 13.9763 42.0237C14.6014 42.6488 15.4493 43 16.3333 43H18C18.8841 43 19.7319 42.6488 20.357 42.0237C20.9821 41.3986 21.3333 40.5507 21.3333 39.6667V34.6667C21.3333 33.7826 20.9821 32.9348 20.357 32.3096C19.7319 31.6845 18.8841 31.3333 18 31.3333H13V39.6667Z" stroke="#FFB765" stroke-width="2" stroke-linecap="round" stroke-linejoin="round"/>
</svg>
