<svg width="56" height="56" viewBox="0 0 56 56" fill="none" xmlns="http://www.w3.org/2000/svg">
<rect width="56" height="56" rx="17" fill="#4DFF74" fill-opacity="0.37"/>
<path d="M28 9.66699V46.3337M36.3333 16.3337H23.8333C22.2862 16.3337 20.8025 16.9482 19.7085 18.0422C18.6146 19.1362 18 20.6199 18 22.167C18 23.7141 18.6146 25.1978 19.7085 26.2918C20.8025 27.3857 22.2862 28.0003 23.8333 28.0003H32.1667C33.7138 28.0003 35.1975 28.6149 36.2915 29.7089C37.3854 30.8028 38 32.2866 38 33.8337C38 35.3808 37.3854 36.8645 36.2915 37.9585C35.1975 39.0524 33.7138 39.667 32.1667 39.667H18" stroke="#4ADE80" stroke-width="2" stroke-linecap="round" stroke-linejoin="round"/>
</svg>
