<svg width="28" height="28" viewBox="0 0 28 28" fill="none" xmlns="http://www.w3.org/2000/svg">
<path d="M24.1111 12.5556H3.88889M24.1111 12.5556C24.8773 12.5556 25.6121 12.8599 26.1539 13.4017C26.6956 13.9435 27 14.6783 27 15.4444V24.1111C27 24.8773 26.6956 25.6121 26.1539 26.1539C25.6121 26.6956 24.8773 27 24.1111 27H3.88889C3.12271 27 2.38791 26.6956 1.84614 26.1539C1.30436 25.6121 1 24.8773 1 24.1111V15.4444C1 14.6783 1.30436 13.9435 1.84614 13.4017C2.38791 12.8599 3.12271 12.5556 3.88889 12.5556M24.1111 12.5556V9.66667C24.1111 8.90049 23.8067 8.16569 23.265 7.62391C22.7232 7.08214 21.9884 6.77778 21.2222 6.77778M3.88889 12.5556V9.66667C3.88889 8.90049 4.19325 8.16569 4.73502 7.62391C5.2768 7.08214 6.0116 6.77778 6.77778 6.77778M21.2222 6.77778V3.88889C21.2222 3.12271 20.9179 2.38791 20.3761 1.84614C19.8343 1.30436 19.0995 1 18.3333 1L9.66667 1C8.90049 1 8.16569 1.30436 7.62391 1.84614C7.08214 2.38791 6.77778 3.12271 6.77778 3.88889V6.77778M21.2222 6.77778H6.77778" stroke="#9EFF71" stroke-width="2" stroke-linecap="round" stroke-linejoin="round"/>
</svg>
