<svg width="29" height="28" viewBox="0 0 29 28" fill="none" xmlns="http://www.w3.org/2000/svg">
<path d="M14.5 8.22222C12.1066 8.22222 10.1667 9.515 10.1667 11.1111C10.1667 12.7072 12.1066 14 14.5 14C16.8934 14 18.8333 15.2928 18.8333 16.8889C18.8333 18.485 16.8934 19.7778 14.5 19.7778M14.5 8.22222C16.1033 8.22222 17.5044 8.80289 18.2541 9.66667M14.5 8.22222V6.77778M14.5 8.22222V19.7778M14.5 19.7778V21.2222M14.5 19.7778C12.8967 19.7778 11.4956 19.1971 10.7459 18.3333M27.5 14C27.5 15.7072 27.1637 17.3977 26.5104 18.9749C25.8571 20.5521 24.8995 21.9852 23.6924 23.1924C22.4852 24.3995 21.0521 25.3571 19.4749 26.0104C17.8977 26.6637 16.2072 27 14.5 27C12.7928 27 11.1023 26.6637 9.52512 26.0104C7.94788 25.3571 6.51477 24.3995 5.30761 23.1924C4.10045 21.9852 3.14288 20.5521 2.48957 18.9749C1.83625 17.3977 1.5 15.7072 1.5 14C1.5 10.5522 2.86964 7.24558 5.30761 4.80761C7.74558 2.36964 11.0522 1 14.5 1C17.9478 1 21.2544 2.36964 23.6924 4.80761C26.1304 7.24558 27.5 10.5522 27.5 14Z" stroke="#FFBD52" stroke-width="2" stroke-linecap="round" stroke-linejoin="round"/>
</svg>
