<svg width="24" height="24" viewBox="0 0 24 24" fill="none" xmlns="http://www.w3.org/2000/svg">
<path d="M24.0001 11.9999C24.0001 18.6274 18.6276 24 12.0001 24C5.37261 24 0 18.6274 0 11.9999C0 5.37255 5.37261 0 12.0001 0C18.6275 0 24.0001 5.37255 24.0001 11.9999" fill="#F4F4F6"/>
<g opacity="0.8">
<path d="M11.9617 6.43213L11.8876 6.68406V13.9944L11.9617 14.0684L15.3551 12.0626L11.9617 6.43213Z" fill="#090A0B"/>
<path d="M11.9617 6.43213L8.56833 12.0626L11.9617 14.0684V10.5202V6.43213Z" fill="#090A0B"/>
<path d="M11.9617 15.1723L11.9199 15.2232V17.8273L11.9617 17.9493L15.3571 13.1675L11.9617 15.1723Z" fill="#090A0B"/>
<path d="M11.9617 17.9493V15.1723L8.56833 13.1675L11.9617 17.9493Z" fill="#090A0B"/>
<path d="M11.9617 14.0682L15.355 12.0624L11.9617 10.52V14.0682Z" fill="#090A0B"/>
<path d="M8.56833 12.0624L11.9617 14.0682V10.52L8.56833 12.0624Z" fill="#090A0B"/>
</g>
</svg>
