<svg width="38" height="38" viewBox="0 0 38 38" fill="none" xmlns="http://www.w3.org/2000/svg">
<path d="M1 31V19C1 14.2261 2.89642 9.64773 6.27208 6.27208C9.64773 2.89642 14.2261 1 19 1C23.7739 1 28.3523 2.89642 31.7279 6.27208C35.1036 9.64773 37 14.2261 37 19V31M37 33C37 34.0609 36.5786 35.0783 35.8284 35.8284C35.0783 36.5786 34.0609 37 33 37H31C29.9391 37 28.9217 36.5786 28.1716 35.8284C27.4214 35.0783 27 34.0609 27 33V27C27 25.9391 27.4214 24.9217 28.1716 24.1716C28.9217 23.4214 29.9391 23 31 23H37V33ZM1 33C1 34.0609 1.42143 35.0783 2.17157 35.8284C2.92172 36.5786 3.93913 37 5 37H7C8.06087 37 9.07828 36.5786 9.82843 35.8284C10.5786 35.0783 11 34.0609 11 33V27C11 25.9391 10.5786 24.9217 9.82843 24.1716C9.07828 23.4214 8.06087 23 7 23H1V33Z" stroke="#6CE4FF" stroke-width="2" stroke-linecap="round" stroke-linejoin="round"/>
</svg>
