<svg width="34" height="35" viewBox="0 0 34 35" fill="none" xmlns="http://www.w3.org/2000/svg">
<path d="M33.4901 21.6127C31.2195 30.7199 21.9949 36.2619 12.8866 33.9914C3.78261 31.7208 -1.75992 22.4962 0.511174 13.3895C2.78067 4.28122 12.0048 -1.26184 21.1104 1.00872C30.2181 3.27929 35.7601 12.505 33.4896 21.6127H33.4901Z" fill="#F7931A"/>
<path d="M17.8264 9.96924L17.3176 12.0063C17.6571 12.0838 17.999 12.1617 18.3313 12.2446L18.8362 10.2212L20.1018 10.5366L19.5833 12.6147C21.1809 13.1651 22.3486 13.9904 22.1194 15.5249C21.9533 16.6482 21.3308 17.1919 20.5042 17.3833C21.6394 17.9747 22.2166 18.8813 21.6663 20.4526C20.984 22.4038 19.361 22.568 17.2034 22.1597L16.6799 24.2583L15.4143 23.9438L15.9319 21.8726C15.6039 21.7911 15.268 21.7045 14.9231 21.6108L14.4045 23.6919L13.1409 23.3765L13.6643 21.2729C13.3693 21.1973 13.0691 21.1173 12.7629 21.0405L11.1155 20.6304L11.7434 19.1812C11.7434 19.1812 12.6759 19.429 12.6633 19.4106C13.0216 19.4993 13.1807 19.2656 13.2434 19.1099L14.0715 15.7925L14.2043 15.8257C14.1539 15.8055 14.1078 15.7927 14.0725 15.7837L14.6633 13.4155C14.6792 13.1467 14.5859 12.8071 14.0735 12.6792C14.0788 12.663 13.1638 12.4538 13.1545 12.4517L13.4915 11.1001L15.2366 11.5356L15.2346 11.5415C15.497 11.6067 15.7679 11.6692 16.0432 11.7319L16.5618 9.65381L17.8264 9.96924ZM15.3333 20.0874C16.1645 20.2941 18.6741 21.0979 19.1858 19.7192L19.2288 19.5786C19.6361 17.9401 16.8863 17.5163 16.0286 17.3022L15.3333 20.0874ZM16.3459 16.0278C17.0606 16.2059 19.2626 16.9318 19.6194 15.5024C19.9913 14.0115 17.6905 13.6795 16.9758 13.5015L16.3459 16.0278Z" fill="white"/>
</svg>
