<svg width="34" height="35" viewBox="0 0 34 35" fill="none" xmlns="http://www.w3.org/2000/svg">
<path d="M34.0002 17.4999C34.0002 26.8888 26.3891 34.5 17.0002 34.5C7.6112 34.5 0 26.8888 0 17.4999C0 8.11111 7.6112 0.5 17.0002 0.5C26.389 0.5 34.0002 8.11111 34.0002 17.4999Z" fill="#F5F5F5"/>
<g opacity="0.8">
<path d="M16.9458 9.61182L16.8408 9.96871V20.325L16.9458 20.4298L21.7531 17.5883L16.9458 9.61182Z" fill="#090A0B"/>
<path d="M16.9457 9.61182L12.1384 17.5883L16.9457 20.4299V15.4032V9.61182Z" fill="#090A0B"/>
<path d="M16.9456 21.994L16.8865 22.0661V25.7552L16.9456 25.928L21.7558 19.1538L16.9456 21.994Z" fill="#090A0B"/>
<path d="M16.9457 25.9281V21.994L12.1384 19.1538L16.9457 25.9281Z" fill="#090A0B"/>
<path d="M16.9458 20.4299L21.753 17.5884L16.9458 15.4033V20.4299Z" fill="#090A0B"/>
<path d="M12.1384 17.5884L16.9457 20.4299V15.4033L12.1384 17.5884Z" fill="#090A0B"/>
</g>
</svg>
