<svg width="34" height="35" viewBox="0 0 34 35" fill="none" xmlns="http://www.w3.org/2000/svg">
<path d="M17 34.5C26.3888 34.5 34 26.8888 34 17.5C34 8.11116 26.3888 0.5 17 0.5C7.61116 0.5 0 8.11116 0 17.5C0 26.8888 7.61116 34.5 17 34.5Z" fill="#F5F5F5"/>
<path fill-rule="evenodd" clip-rule="evenodd" d="M6.53857 10.979C6.53857 10.9899 8.07264 13.6816 9.9475 16.9628C12.3654 21.1932 13.3618 22.927 13.3737 22.9248C13.3889 22.9215 20.2024 10.9943 20.2024 10.9714C20.2024 10.966 18.7733 10.9616 16.9893 10.9616C14.2349 10.9616 13.7762 10.9638 13.7762 10.9769C13.7762 10.9856 14.4383 12.1396 15.2464 13.541C16.0557 14.9435 16.7188 16.0965 16.721 16.103C16.7232 16.1095 16.5998 16.3329 16.4484 16.5988L16.1725 17.0838L16.1433 17.0336C16.1271 17.0053 15.333 15.629 14.3788 13.9747L12.6424 10.967L9.59049 10.9638C6.75819 10.9616 6.53857 10.9627 6.53857 10.979Z" fill="#56F4F1"/>
<path fill-rule="evenodd" clip-rule="evenodd" d="M21.3243 10.9692C21.2118 11.1599 13.945 23.9088 13.9407 23.9208C13.9342 23.947 16.9775 29.2714 16.9969 29.2671C17.0099 29.2638 20.0705 23.923 20.0802 23.8848C20.0835 23.8739 19.4906 22.8365 18.6889 21.446C17.9208 20.1154 17.2912 19.0224 17.2901 19.017C17.2858 19.0039 17.8343 18.0449 17.8429 18.0504C17.8473 18.0525 18.4758 19.139 19.2407 20.4641C20.3139 22.3243 20.6341 22.8725 20.6482 22.8703C20.6612 22.8681 21.7993 20.887 24.056 16.9388C25.919 13.6783 27.4455 10.9997 27.4487 10.9855L27.4531 10.9616H24.3914C22.707 10.9616 21.3265 10.9648 21.3243 10.9692Z" fill="#0ED8D2"/>
</svg>
