<svg width="49" height="48" viewBox="0 0 49 48" fill="none" xmlns="http://www.w3.org/2000/svg">
<rect x="0.660156" width="48" height="48" rx="24" fill="#3B82F6"/>
<path d="M29.6602 32H34.6602V30C34.6601 29.3765 34.4658 28.7686 34.1043 28.2606C33.7428 27.7527 33.232 27.37 32.6429 27.1658C32.0538 26.9615 31.4158 26.9459 30.8174 27.121C30.2191 27.2962 29.6901 27.6534 29.3042 28.143M29.6602 32H19.6602M29.6602 32V30C29.6602 29.344 29.5342 28.717 29.3042 28.143M29.3042 28.143C28.9328 27.215 28.2919 26.4195 27.4642 25.8591C26.6364 25.2988 25.6597 24.9993 24.6602 24.9993C23.6606 24.9993 22.6839 25.2988 21.8562 25.8591C21.0284 26.4195 20.3875 27.215 20.0162 28.143M19.6602 32H14.6602V30C14.6602 29.3765 14.8545 28.7686 15.216 28.2606C15.5775 27.7527 16.0883 27.37 16.6774 27.1658C17.2665 26.9615 17.9045 26.9459 18.5029 27.121C19.1013 27.2962 19.6302 27.6534 20.0162 28.143M19.6602 32V30C19.6602 29.344 19.7862 28.717 20.0162 28.143M27.6602 19C27.6602 19.7956 27.3441 20.5587 26.7815 21.1213C26.2189 21.6839 25.4558 22 24.6602 22C23.8645 22 23.1014 21.6839 22.5388 21.1213C21.9762 20.5587 21.6602 19.7956 21.6602 19C21.6602 18.2044 21.9762 17.4413 22.5388 16.8787C23.1014 16.3161 23.8645 16 24.6602 16C25.4558 16 26.2189 16.3161 26.7815 16.8787C27.3441 17.4413 27.6602 18.2044 27.6602 19ZM33.6602 22C33.6602 22.5304 33.4494 23.0391 33.0744 23.4142C32.6993 23.7893 32.1906 24 31.6602 24C31.1297 24 30.621 23.7893 30.2459 23.4142C29.8709 23.0391 29.6602 22.5304 29.6602 22C29.6602 21.4696 29.8709 20.9609 30.2459 20.5858C30.621 20.2107 31.1297 20 31.6602 20C32.1906 20 32.6993 20.2107 33.0744 20.5858C33.4494 20.9609 33.6602 21.4696 33.6602 22ZM19.6602 22C19.6602 22.5304 19.4494 23.0391 19.0744 23.4142C18.6993 23.7893 18.1906 24 17.6602 24C17.1297 24 16.621 23.7893 16.2459 23.4142C15.8709 23.0391 15.6602 22.5304 15.6602 22C15.6602 21.4696 15.8709 20.9609 16.2459 20.5858C16.621 20.2107 17.1297 20 17.6602 20C18.1906 20 18.6993 20.2107 19.0744 20.5858C19.4494 20.9609 19.6602 21.4696 19.6602 22Z" stroke="white" stroke-width="2" stroke-linecap="round" stroke-linejoin="round"/>
</svg>
