<svg width="43" height="42" viewBox="0 0 43 42" fill="none" xmlns="http://www.w3.org/2000/svg">
<rect x="0.5" width="42" height="42" rx="12" fill="#1C1C1C"/>
<path d="M15.2998 12.5C17.6388 12.5 19.8792 13.3992 21.5283 14.9951C23.1769 16.5905 24.0996 18.751 24.0996 21C24.0996 23.249 23.1769 25.4095 21.5283 27.0049C19.8792 28.6008 17.6388 29.5 15.2998 29.5C12.9608 29.5 10.7204 28.6008 9.07129 27.0049C7.42273 25.4095 6.5 23.2489 6.5 21C6.5 18.7511 7.42273 16.5905 9.07129 14.9951C10.7204 13.3992 12.9608 12.5 15.2998 12.5ZM29.25 14C30.1362 14 30.9715 14.6375 31.6123 15.9199C32.2467 17.1896 32.625 18.9835 32.625 21C32.625 23.0165 32.2467 24.8104 31.6123 26.0801C30.9715 27.3625 30.1362 28 29.25 28C28.3638 28 27.5285 27.3625 26.8877 26.0801C26.2533 24.8104 25.875 23.0165 25.875 21C25.875 18.9835 26.2533 17.1896 26.8877 15.9199C27.5285 14.6375 28.3638 14 29.25 14ZM35.5039 14.8125C35.5848 14.902 35.6858 15.0647 35.792 15.3252C36.003 15.8429 36.1897 16.6357 36.3174 17.6797V17.6787L36.3896 18.3379L36.417 18.666V18.667L36.4629 19.3955V19.3965L36.4785 19.7852L36.4971 20.5889L36.5 21.0039L36.4971 21.4111L36.4785 22.2148L36.4629 22.6035L36.418 23.3203L36.3877 23.6641L36.3193 24.3203C36.1908 25.3652 36.0039 26.1583 35.793 26.6758C35.6869 26.936 35.5857 27.0982 35.5049 27.1875C35.4828 27.212 35.4629 27.2245 35.4502 27.2344C35.4376 27.2245 35.4174 27.2117 35.3955 27.1875C35.3147 27.0979 35.2135 26.935 35.1074 26.6748C34.9229 26.2218 34.757 25.5582 34.6328 24.7002L34.582 24.3203L34.5107 23.6748H34.5117L34.4814 23.3223L34.4365 22.5918L34.4209 22.2227H34.4219L34.4033 21.4111V20.5889L34.4209 19.7764L34.4365 19.4072L34.4814 18.6797L34.5127 18.3271L34.5117 18.3262L34.5811 17.6797C34.7096 16.6348 34.8964 15.8417 35.1074 15.3242C35.2135 15.064 35.3147 14.9017 35.3955 14.8125C35.4176 14.7881 35.4366 14.7745 35.4492 14.7646C35.4619 14.7745 35.4815 14.7877 35.5039 14.8125Z" stroke="#888888"/>
</svg>
