<svg width="43" height="42" viewBox="0 0 43 42" fill="none" xmlns="http://www.w3.org/2000/svg">
<rect x="0.5" width="42" height="42" rx="12" fill="#1C1C1C"/>
<path d="M31.0107 12.0107C31.212 12.0383 31.4031 12.1193 31.5635 12.2471C31.7237 12.3748 31.8475 12.5446 31.9219 12.7383C31.9962 12.9321 32.0178 13.1432 31.9844 13.3486L29.502 28.5713C29.3137 29.7192 28.0814 30.3487 27.0693 29.793C25.9597 29.1836 24.3184 28.2489 22.8467 27.2764C22.479 27.0331 21.7539 26.5351 21.1592 25.9707C20.8607 25.6874 20.6154 25.4063 20.4629 25.1494C20.3057 24.8846 20.2879 24.7166 20.3115 24.6221C20.3197 24.5912 20.3639 24.4914 20.4893 24.3066C20.6077 24.1322 20.7736 23.9192 20.9814 23.6729C21.3968 23.1806 21.9561 22.5831 22.584 21.9414C23.8404 20.6574 25.3361 19.2298 26.4375 18.1514V18.1504C26.6774 17.9152 26.8609 17.6773 26.9639 17.4482C27.0482 17.2606 27.1607 16.8772 26.8877 16.5752C26.6194 16.2786 26.2302 16.3428 26.0303 16.4033C25.8472 16.4587 25.6503 16.558 25.4453 16.6943L25.2373 16.8428C22.717 18.7664 18.6901 21.6764 17.376 22.4854C16.8036 22.8375 16.4015 23.0222 16.0752 23.1104C15.7628 23.1947 15.4993 23.1965 15.1904 23.1445C14.0434 22.9516 12.9758 22.6671 12.0742 22.3252L11.6982 22.1748L11.5332 22.0908C10.7641 21.6188 10.8337 20.4264 11.6992 20.0576L30.417 12.0898C30.6045 12.0101 30.8096 11.9832 31.0107 12.0107Z" stroke="#888888"/>
</svg>
