<svg width="43" height="42" viewBox="0 0 43 42" fill="none" xmlns="http://www.w3.org/2000/svg">
<rect x="0.5" width="42" height="42" rx="12" fill="#1C1C1C"/>
<path d="M27.5416 16.7705C28.5426 16.7705 29.3541 15.959 29.3541 14.958C29.3541 13.957 28.5426 13.1455 27.5416 13.1455C26.5406 13.1455 25.7291 13.957 25.7291 14.958C25.7291 15.959 26.5406 16.7705 27.5416 16.7705Z" fill="#888888"/>
<path d="M26.3333 10.125C29.6683 10.125 32.375 12.8317 32.375 16.1667V25.8333C32.375 29.1683 29.6683 31.875 26.3333 31.875H16.6667C13.3317 31.875 10.625 29.1683 10.625 25.8333V16.1667C10.625 12.8317 13.3317 10.125 16.6667 10.125H21.5H26.3333Z" stroke="#888888" stroke-linecap="round" stroke-linejoin="round"/>
<path d="M21.5 16.167C24.1704 16.167 26.3333 18.3299 26.3333 21.0003C26.3333 23.6707 24.1704 25.8337 21.5 25.8337C18.8295 25.8337 16.6666 23.6707 16.6666 21.0003C16.6666 18.3299 18.8295 16.167 21.5 16.167Z" stroke="#888888" stroke-linecap="round" stroke-linejoin="round"/>
</svg>
