<svg width="43" height="42" viewBox="0 0 43 42" fill="none" xmlns="http://www.w3.org/2000/svg">
<rect x="0.5" width="42" height="42" rx="12" fill="#1C1C1C"/>
<path d="M26.7803 27.6572C26.3669 27.3209 25.7688 27.3451 25.3818 27.7295L25.376 27.7344C25.0247 28.0937 24.4188 28.3721 23.6777 28.5566C22.9499 28.7378 22.1565 28.8125 21.5 28.8125C20.8437 28.8125 20.0567 28.7377 19.332 28.5566C18.5956 28.3726 17.985 28.0939 17.6191 27.7295H17.6182C17.2054 27.3194 16.5524 27.3194 16.1396 27.7295L16.1387 27.7305C15.7257 28.1426 15.7256 28.7969 16.1387 29.209V29.21C16.9533 30.021 18.1122 30.433 19.1182 30.6484C20.1357 30.8664 21.069 30.8975 21.5 30.8975C21.9161 30.8975 22.8438 30.8731 23.8623 30.6582C24.8698 30.4456 26.0347 30.0324 26.8613 29.209L26.8711 29.1992L26.8809 29.1885C27.2435 28.782 27.2435 28.1574 26.8809 27.751L26.8711 27.7402L26.8604 27.7295L26.7803 27.6572ZM26.1211 20.7168C24.6855 20.7168 23.5166 21.8788 23.5166 23.3135C23.5168 24.748 24.6856 25.9092 26.1211 25.9092C27.5605 25.9091 28.7254 24.7198 28.7256 23.3135C28.7256 21.8788 27.5569 20.7169 26.1211 20.7168ZM16.8311 20.6924C15.3951 20.6924 14.2256 21.8545 14.2256 23.2891C14.2257 24.7109 15.3826 25.9087 16.8311 25.8848V25.8857L16.834 25.8848C16.8363 25.8847 16.8385 25.8858 16.8408 25.8857L16.8398 25.8848C18.2714 25.8799 19.4354 24.7205 19.4355 23.2891C19.4355 21.8544 18.2664 20.6925 16.8311 20.6924ZM10.1699 24.7812C10.169 24.511 10.1907 24.2412 10.2354 23.9746L10.2988 23.5947L9.94727 23.4355C9.0984 23.0527 8.5 22.2119 8.5 21.2168C8.50009 19.8777 9.58311 18.7776 10.9512 18.7773H10.9521C11.5897 18.7764 12.2026 19.021 12.6631 19.459L12.9629 19.7432L13.2988 19.5029C15.2644 18.0978 17.9964 17.1838 21.0557 17.0898L21.4473 17.0781L21.5293 16.6943L23.0293 9.6582L23.0322 9.64746L23.0332 9.63574C23.0344 9.6357 23.0357 9.63574 23.0371 9.63574C23.0433 9.63575 23.0506 9.63558 23.0586 9.63672L27.9531 10.6699L28.3359 10.751L28.5068 10.3984C28.7643 9.8675 29.3182 9.50014 29.9434 9.5C30.8303 9.5 31.5486 10.2174 31.5488 11.0957C31.5488 11.9748 30.8302 12.6924 29.9434 12.6924C29.0734 12.6922 28.3749 12.0115 28.3379 11.1709L28.3213 10.7842L27.9434 10.7041L23.54 9.76367L23.0508 9.66016L22.9463 10.1484L21.5918 16.4619L21.4668 17.043L22.0615 17.0664C25.073 17.1836 27.7586 18.0967 29.7021 19.4795L30.0381 19.7188L30.3369 19.4346C30.7974 18.9965 31.4103 18.7521 32.0479 18.7529H32.0488C33.3982 18.7532 34.4999 19.8349 34.5 21.1924C34.5 22.1924 33.8969 23.0548 33.0527 23.4355L32.7031 23.5938L32.7646 23.9727C32.8086 24.2406 32.8311 24.5117 32.8311 24.7832C32.8311 26.8507 31.6289 28.7676 29.5801 30.1885C27.5328 31.6083 24.6774 32.5 21.5 32.5C18.3235 32.5 15.4685 31.6026 13.4209 30.1797C11.3712 28.7553 10.1699 26.8381 10.1699 24.7832V24.7812Z" stroke="#888888"/>
</svg>
