<svg width="40" height="35" viewBox="0 0 40 35" fill="none" xmlns="http://www.w3.org/2000/svg">
<path fill-rule="evenodd" clip-rule="evenodd" d="M35.8567 0.239446C36.3485 0.0274293 36.8868 -0.0456937 37.4156 0.0276867C37.9443 0.101067 38.4442 0.318269 38.8632 0.656685C39.2822 0.9951 39.605 1.44236 39.798 1.95191C39.9909 2.46145 40.047 3.01466 39.9604 3.55395L35.4467 31.5968C35.0089 34.3018 32.1112 35.8531 29.6891 34.5057C27.6631 33.3784 24.654 31.6417 21.9474 29.8295C20.5941 28.9224 16.4485 26.0176 16.958 23.9506C17.3959 22.1833 24.3615 15.542 28.3418 11.5936C29.9041 10.0423 29.1916 9.14744 27.3467 10.5743C22.7653 14.1172 15.4097 19.5048 12.9777 21.0214C10.8323 22.3586 9.7138 22.5869 8.3764 22.3586C5.93646 21.9427 3.67363 21.2986 1.82675 20.5138C-0.66892 19.4538 -0.54752 15.9395 1.82476 14.9162L35.8567 0.239446Z" fill="white"/>
</svg>
